PathFileType	4	(X/Y/Z)	Trial12_Gait_markers.trc																																																																																																				
DataRate	CameraRate	NumFrames	NumMarkers	Units	OrigDataRate	OrigDataStartFrame	OrigNumFrames																																																																																																
200	200	4	34	m	200	400	12000																																																																																																
Frame#	Time	R_ASIS			L_ASIS			Sacral			Chest			R_Elbow			R_Wrist			L_Elbow			L_Wrist			L_Patella			L_Thigh_Superior			L_Thigh_Posterior			L_Thigh_Inferior			L_Thigh_Lateral			L_Shank_Posterior			L_Shank_Superior			L_Shank_Lateral			L_Shank_Inferior			L_Midfoot_Superior			L_Heel			L_Midfoot_Lateral			L_Toe			R_Patella			R_Thigh_Posterior			R_Thigh_Superior			R_Thigh_Lateral			R_Thigh_Inferior			R_Shank_Posterior			R_Shank_Superior			R_Shank_Lateral			R_Shank_Inferior			R_Midfoot_Superior			R_Heel			R_Midfoot_Lateral			R_Toe		
		X1	Y1	Z1	X2	Y2	Z2	X3	Y3	Z3	X4	Y4	Z4	X5	Y5	Z5	X6	Y6	Z6	X7	Y7	Z7	X8	Y8	Z8	X9	Y9	Z9	X10	Y10	Z10	X11	Y11	Z11	X12	Y12	Z12	X13	Y13	Z13	X14	Y14	Z14	X15	Y15	Z15	X16	Y16	Z16	X17	Y17	Z17	X18	Y18	Z18	X19	Y19	Z19	X20	Y20	Z20	X21	Y21	Z21	X22	Y22	Z22	X23	Y23	Z23	X24	Y24	Z24	X25	Y25	Z25	X26	Y26	Z26	X27	Y27	Z27	X28	Y28	Z28	X29	Y29	Z29	X30	Y30	Z30	X31	Y31	Z31	X32	Y32	Z32	X33	Y33	Z33	X34	Y34	Z34
																																																																																																							
401	2	0.811101196	0.972638123	0.598770813	0.849206787	0.977020264	0.34996402	0.63615387	1.031751709	0.459353516	0.847173645	1.360269409	0.484784607	0.687677612	1.073070679	0.722387085	0.774502991	0.83424115	0.768110657	0.7422099	1.110526245	0.188112259	0.844434814	0.881916443	0.16378804	0.870065918	0.474192566	0.385425079	0.841527771	0.740396301	0.281296509	0.767761047	0.726666077	0.281416992	0.854439697	0.647961182	0.299357208	0.775232544	0.638572632	0.297963684	0.734663513	0.378433533	0.316296692	0.804462219	0.350830963	0.32611615	0.721249451	0.308420715	0.316965515	0.785429626	0.295733521	0.326098328	0.799586243	0.088548805	0.411854279	0.625973633	0.047740494	0.44221582	0.721593872	0.027808718	0.370786713	0.921161987	0.033495331	0.40459729	0.973688599	0.506816437	0.594753296	0.771957153	0.760248535	0.656687561	0.842912415	0.785632996	0.652767883	0.810799744	0.668797668	0.662925903	0.876131042	0.696966003	0.662633179	0.76887738	0.439869598	0.653514221	0.820582397	0.382899963	0.647948242	0.723046753	0.38675531	0.63965625	0.779054199	0.341199463	0.635000244	0.677351501	0.161767014	0.562645569	0.53084137	0.254284378	0.524655823	0.571895386	0.164525162	0.599903076	0.730614319	0.043244228	0.575284119
402	2.005	0.81082428	0.973201782	0.598566467	0.848818237	0.977292419	0.349748505	0.635913818	1.032217407	0.459407349	0.846954285	1.360674194	0.484844147	0.685418457	1.073570068	0.72185376	0.769406494	0.833828796	0.767610291	0.744086182	1.111193481	0.1874702	0.849592468	0.88398645	0.16336351	0.865878967	0.473880219	0.385128296	0.839714233	0.740134399	0.281285339	0.765671631	0.72713385	0.281394836	0.851795349	0.647893616	0.299519226	0.772603821	0.639041931	0.297959839	0.729922852	0.378965393	0.316269836	0.799622559	0.351005737	0.325861542	0.716224121	0.309040863	0.316874359	0.78038385	0.296015228	0.325845093	0.793818115	0.08866198	0.411653961	0.62011676	0.048511093	0.441911316	0.715655945	0.02804846	0.370702637	0.915174011	0.0333465	0.404479706	0.977229309	0.509954498	0.594684082	0.773108337	0.761408508	0.657199646	0.843902527	0.787438965	0.652876526	0.813136353	0.670374695	0.663434326	0.877872986	0.699002319	0.662888672	0.77395459	0.438929291	0.653687988	0.826732361	0.383150421	0.648012329	0.728992737	0.385068146	0.640010315	0.785891174	0.340689331	0.635008423	0.689112	0.160558533	0.563601624	0.539090698	0.247821854	0.524769287	0.583314209	0.160144897	0.601341553	0.745092102	0.043065865	0.576067017
403	2.01	0.810667908	0.973705994	0.598382874	0.848392517	0.977489258	0.349553619	0.635652344	1.032636475	0.459491028	0.846756165	1.360991699	0.484883698	0.683186584	1.074050049	0.721273743	0.76433551	0.833418396	0.767179443	0.745891113	1.111769775	0.186848282	0.854668213	0.886065125	0.163013123	0.861698486	0.473552948	0.384828186	0.83763739	0.740104065	0.281347351	0.763563232	0.727592529	0.281336151	0.848983032	0.647843079	0.299813416	0.769944885	0.639520569	0.29795285	0.725182312	0.379458679	0.316275421	0.794763245	0.3511698	0.325714752	0.711153809	0.309590088	0.316834839	0.775284546	0.296276428	0.325631104	0.788041077	0.088756615	0.411460846	0.614350952	0.04917577	0.441860535	0.709716858	0.028288324	0.370590942	0.909189514	0.033201023	0.404336578	0.980556946	0.513024719	0.594594421	0.774276001	0.762478638	0.657641663	0.84475061	0.789118958	0.652953369	0.814487854	0.671407166	0.664021729	0.87952417	0.700985352	0.663008118	0.778736572	0.438073486	0.653757141	0.832722595	0.383451813	0.647959106	0.734895874	0.383237213	0.640259338	0.792903809	0.339931427	0.635043762	0.699632751	0.158330643	0.563672729	0.54751825	0.241336746	0.524946106	0.59443396	0.155148209	0.601658203	0.759848083	0.042708038	0.576883484
404	2.015	0.810547119	0.974280701	0.598332886	0.847981506	0.97770575	0.349357727	0.635354858	1.033053223	0.459651306	0.846556824	1.361307007	0.484947327	0.680909729	1.074545288	0.720807129	0.75934137	0.833083435	0.766759033	0.747655273	1.112342163	0.186231171	0.859726379	0.888139832	0.162697769	0.857509277	0.473265137	0.38457785	0.835441406	0.739872192	0.281320129	0.761465637	0.727983337	0.281343628	0.846697144	0.647669006	0.299990356	0.767248657	0.639930725	0.2979487	0.720429749	0.379973328	0.316321686	0.789940002	0.351419159	0.325456055	0.70608844	0.310119873	0.316818726	0.770217468	0.296593597	0.325367645	0.782252197	0.088870888	0.411287994	0.608219971	0.050188545	0.441806427	0.703817688	0.028634979	0.370474548	0.903193604	0.033063213	0.404215393	0.983637634	0.515977112	0.594466797	0.775213196	0.763456909	0.65805542	0.845568787	0.790616089	0.653119141	0.816228882	0.673063721	0.664482178	0.881109131	0.702992615	0.663207764	0.783528687	0.436951477	0.654036316	0.838654175	0.383597656	0.647819336	0.74082959	0.381176849	0.640533447	0.799869934	0.339138947	0.635020996	0.710886414	0.15618631	0.564080688	0.556224731	0.234230042	0.524599976	0.605731506	0.149989578	0.602046021	0.774147339	0.042489357	0.577871399
